<?xml version="1.0" encoding="UTF-8" standalone="no"?>
<!-- Uploaded to: SVG Repo, www.svgrepo.com, Generator: SVG Repo Mixer Tools -->

<svg
   fill="#000000"
   width="128"
   height="128"
   viewBox="0 0 24 24"
   role="img"
   version="1.1"
   id="svg6"
   xmlns="http://www.w3.org/2000/svg"
   xmlns:svg="http://www.w3.org/2000/svg"
   xmlns:rdf="http://www.w3.org/1999/02/22-rdf-syntax-ns#"
   xmlns:cc="http://creativecommons.org/ns#"
   xmlns:dc="http://purl.org/dc/elements/1.1/">
  <defs
     id="defs10" />
  <title
     id="title2">Insomnia icon</title>
  <path
     d="M 12,1.17 C 6.0588425,1.17 1.17,6.0588425 1.17,12 1.17,17.941157 6.0588425,22.83 12,22.83 17.941157,22.83 22.83,17.941157 22.83,12 22.83,6.0588425 17.941157,1.17 12,1.17 Z m 0,2.236395 c 4.74354,0 8.593605,3.850065 8.593605,8.593605 0,4.74354 -3.850065,8.593605 -8.593605,8.593605 -4.74354,0 -8.593605,-3.850065 -8.593605,-8.593605 0,-0.798713 0.1083,-1.571253 0.3131675,-2.304985 A 4.2959,4.2959 0 0 0 7.261875,11.55958 4.29951,4.29951 0 0 0 11.55958,7.261875 4.294095,4.294095 0 0 0 9.6941125,3.7195625 8.597215,8.597215 0 0 1 12,3.406395 Z"
     id="path4"
     style="stroke-width:0.9025;fill:#7400e1;fill-opacity:1" />
  <metadata
     id="metadata239">
    <rdf:RDF>
      <cc:Work
         rdf:about="">
        <dc:title>Insomnia icon</dc:title>
      </cc:Work>
    </rdf:RDF>
  </metadata>
</svg>
