<?xml version="1.0" encoding="UTF-8" standalone="no"?>
<!-- Created with Inkscape (http://www.inkscape.org/) -->

<svg
   version="1.1"
   id="svg2"
   width="512"
   height="512"
   viewBox="0 0 512 512"
   xmlns="http://www.w3.org/2000/svg"
   xmlns:svg="http://www.w3.org/2000/svg">
  <defs
     id="defs6" />
  <g
     id="g8"
     style="fill:#800000">
    <path
       style="fill:#1f2933;stroke-width:0.912989;fill-opacity:1"
       d="m 250.68278,504.43224 c -6.75028,-0.86235 -10.40179,-2.51239 -26.3886,-11.92466 -7.18686,-4.23127 -22.51642,-13.16255 -34.06573,-19.84729 -17.61184,-10.1937 -90.544282,-52.7204 -115.949676,-67.60997 -4.017154,-2.35436 -11.743692,-6.86653 -17.170137,-10.02703 -16.284811,-9.4848 -23.240148,-18.04125 -25.20828,-31.01095 -1.118138,-7.36878 -1.234179,-204.26795 -0.126175,-214.14802 1.591615,-14.19281 8.942732,-23.64927 26.074433,-33.542 5.521577,-3.18841 16.612757,-9.63032 24.647065,-14.31534 8.034307,-4.685016 16.867478,-9.829712 19.62928,-11.432657 17.1769,-9.969498 73.75066,-42.991708 84.45153,-49.294531 47.47308,-27.961746 51.8264,-30.43697 56.37802,-32.055582 2.13356,-0.7587307 7.16605,-1.6087879 11.18321,-1.8890209 8.43903,-0.5887139 15.57532,1.3129793 24.19422,6.4473399 11.55324,6.882426 111.15984,65.007391 126.44904,73.788753 6.52788,3.749301 15.97732,9.214337 20.99877,12.144522 5.02144,2.930186 15.69117,9.125136 23.71051,13.766556 8.52175,4.9322 16.48887,10.2859 19.17278,12.88365 5.33504,5.16375 9.89879,13.28156 11.34032,20.17152 0.70738,3.3811 1.00748,36.23792 0.99634,109.10225 -0.0173,113.56626 0.0429,112.1513 -5.14415,121.02986 -4.93927,8.45458 -10.50629,12.50751 -43.35365,31.56272 -17.25514,10.00989 -39.58978,22.99615 -49.63267,28.85833 -10.04288,5.86218 -22.16282,12.91081 -26.93319,15.66363 -4.77036,2.75282 -24.69636,14.37995 -44.27999,25.83807 -19.58362,11.45813 -37.80671,21.84456 -40.49573,23.08097 -5.83374,2.6824 -13.25232,3.68189 -20.47754,2.75888 z m 14.85899,-29.89157 c 2.26422,-1.42476 15.20959,-9.0542 28.76748,-16.95432 13.5579,-7.90012 28.1429,-16.42086 32.41113,-18.93499 4.26823,-2.51413 10.4309,-6.11089 13.69484,-7.99281 3.26394,-1.88191 11.89169,-6.91401 19.17279,-11.18242 7.28109,-4.26842 21.24982,-12.40258 31.04164,-18.0759 53.01967,-30.71936 58.89622,-34.32123 60.94205,-37.3528 l 2.05422,-3.04409 -0.0155,-104.63052 -0.0146,-104.63054 -2.03926,-3.52865 c -1.67451,-2.89764 -4.56978,-4.99685 -16.1905,-11.73906 -7.78324,-4.51573 -20.31402,-11.7971 -27.84618,-16.1808 -7.53217,-4.38371 -23.14428,-13.44247 -34.6936,-20.13058 C 361.27694,93.475073 335.39369,78.371241 315.30792,66.599109 295.22215,54.826977 274.54248,42.706959 269.35314,39.665745 257.47369,32.703707 254.7286,32.500567 245.65467,37.91202 c -3.36875,2.008997 -17.01228,9.996331 -30.3191,17.749611 -13.30683,7.75329 -30.3569,17.719374 -37.88907,22.146844 -7.53216,4.427469 -19.44667,11.391863 -26.47669,15.476414 -88.881545,51.641631 -89.2094,51.842921 -90.999955,55.875931 -1.619188,3.6468 -1.681179,8.27351 -1.451745,108.35075 0.23966,104.52557 0.240025,104.54166 2.153377,107.11876 1.073676,1.44611 8.888227,6.62152 17.803296,11.7907 8.739318,5.06728 45.675957,26.59849 82.081407,47.84713 73.96101,43.1686 89.06095,51.89982 91.7382,53.04588 2.93773,1.25756 8.78762,0.0329 13.24729,-2.77337 z m -28.29436,-75.06372 c -7.2811,-3.52372 -17.34681,-8.2419 -22.36825,-10.48486 -10.24337,-4.57547 -13.7466,-7.39987 -15.06505,-12.14599 -0.53337,-1.91984 -0.90422,-20.32266 -0.90724,-45.01664 l -0.009,-41.76926 h -55.28124 c -60.895308,0 -59.490583,0.12764 -61.482452,-5.58644 -1.409747,-4.0439 -1.3861,-60.58499 0.02739,-64.80577 1.678074,-5.01204 4.780869,-8.45119 12.83736,-14.22883 37.757152,-27.07736 65.494042,-46.8543 111.203142,-79.28991 5.77465,-4.09776 16.25122,-11.54944 23.28122,-16.55931 31.1481,-22.197349 31.90278,-22.648895 37.6947,-22.554255 4.14971,0.06783 7.6418,1.108571 17.08468,5.091788 6.52787,2.753613 17.10713,7.203213 23.50947,9.887997 6.40234,2.68479 11.64062,5.17413 11.64062,5.53185 0,0.35772 -2.15695,2.08594 -4.7932,3.84051 -5.48095,3.64782 -50.20301,34.30436 -61.85504,42.40107 -4.26823,2.96588 -18.76276,12.96271 -32.2099,22.2152 -13.44724,9.25249 -35.63289,24.59365 -49.30143,34.09147 -13.66865,9.49782 -26.50218,18.39808 -28.51907,19.77836 -6.05585,4.14437 -6.98975,5.6617 -7.51536,12.21021 l -0.47995,5.97854 h 32.07962 32.07971 l 0.0676,-18.48804 c 0.0375,-10.16842 0.34529,-20.28648 0.68474,-22.48456 l 0.61709,-3.99652 25.44192,-17.23049 c 13.9931,-9.47677 25.59949,-17.23048 25.79195,-17.23048 0.19254,0 0.35003,17.8625 0.35003,39.69445 v 39.69444 l 16.35493,0.24884 16.35502,0.24885 -12.92501,10.04288 c -12.04625,9.36017 -13.14256,10.471 -16.12668,16.34057 l -3.20175,6.29768 -0.25848,62.40478 c -0.14214,34.32263 -0.55298,62.37639 -0.91298,62.3417 -0.35999,-0.0347 -6.61177,-2.94611 -13.89286,-6.46983 z m 33.78061,-83.68734 c 0,-27.3488 0.63005,-31.48088 5.67669,-37.22868 3.31416,-3.77461 1.63736,-2.67278 50.92866,-33.46574 20.83898,-13.01842 39.11767,-24.87028 40.61945,-26.33749 2.45247,-2.39614 2.73121,-3.24747 2.73897,-8.36483 l 0.009,-5.6972 -48.63422,-0.23626 -48.63412,-0.23626 0.24568,-20.306 0.24578,-20.30601 h 71.21318 c 80.74068,0 75.84852,-0.4478 80.42525,7.36184 l 2.30237,3.92877 -0.27928,26.76582 c -0.26541,25.42998 -0.37798,26.94809 -2.25618,30.41778 -2.83922,5.24508 -7.70764,9.47403 -18.10888,15.73043 -5.02143,3.02042 -15.29257,9.35994 -22.82473,14.08782 -7.53216,4.7279 -23.8556,14.94877 -36.27426,22.71308 -12.41867,7.7643 -22.58709,14.42505 -22.59649,14.80165 -0.009,0.37661 23.19568,0.68474 51.56683,0.68474 28.37115,0 51.59541,0.30814 51.60956,0.68475 0.0137,0.3766 -1.29535,9.4152 -2.91006,20.08577 l -2.93571,19.40102 h -76.0636 -76.06352 z"
       id="path170" />
  </g>
</svg>
