<?xml version="1.0" encoding="UTF-8" standalone="no"?>
<!-- Uploaded to: SVG Repo, www.svgrepo.com, Generator: SVG Repo Mixer Tools -->

<svg
   width="128"
   height="128"
   viewBox="0 0 24 24"
   fill="none"
   version="1.1"
   id="svg10"
   xmlns="http://www.w3.org/2000/svg"
   xmlns:svg="http://www.w3.org/2000/svg">
  <defs
     id="defs14" />
  <g
     id="g359"
     transform="matrix(0.81450625,0,0,0.81450625,-1.0321,-1.0321)">
    <path
       d="M 26.5002,14.9996 C 27.8808,14.9996 29,13.8804 29,12.4998 29,11.1192 27.8807,10 26.5001,10 25.1194,10 24,11.1193 24,12.5 v 2.4996 z m -7.0002,0 c 1.3807,0 2.5,-1.1193 2.5,-2.5 V 5.5 C 22,4.11929 20.8807,3 19.5,3 18.1193,3 17,4.11929 17,5.5 v 6.9996 c 0,1.3807 1.1193,2.5 2.5,2.5 z"
       fill="#2eb67d"
       id="path2"
       style="fill:#000000" />
    <path
       d="M 5.49979,17.0004 C 4.11919,17.0004 3,18.1196 3,19.5002 3,20.8808 4.1193,22 5.49989,22 6.8806,22 8,20.8807 8,19.5 v -2.4996 z m 7.00021,0 c -1.3807,0 -2.5,1.1193 -2.5,2.5 V 26.5 c 0,1.3807 1.1193,2.5 2.5,2.5 1.3807,0 2.5,-1.1193 2.5,-2.5 v -6.9996 c 0,-1.3807 -1.1193,-2.5 -2.5,-2.5 z"
       fill="#e01e5a"
       id="path4"
       style="fill:#000000" />
    <path
       d="M 17.0004,26.5002 C 17.0004,27.8808 18.1196,29 19.5002,29 20.8808,29 22,27.8807 22,26.5001 22,25.1194 20.8807,24 19.5,24 h -2.4996 z m 0,-7.0002 c 0,1.3807 1.1193,2.5 2.5,2.5 H 26.5 C 27.8807,22 29,20.8807 29,19.5 29,18.1193 27.8807,17 26.5,17 h -6.9996 c -1.3807,0 -2.5,1.1193 -2.5,2.5 z"
       fill="#ecb22e"
       id="path6"
       style="fill:#000000" />
    <path
       d="M 14.9996,5.49979 C 14.9996,4.11919 13.8804,3 12.4998,3 11.1192,3 10,4.1193 10,5.49989 10,6.88061 11.1193,8 12.5,8 h 2.4996 z m 0,7.00021 c 0,-1.3807 -1.1193,-2.5 -2.5,-2.5 H 5.5 C 4.11929,10 3,11.1193 3,12.5 3,13.8807 4.11929,15 5.5,15 h 6.9996 c 1.3807,0 2.5,-1.1193 2.5,-2.5 z"
       fill="#36c5f0"
       id="path8"
       style="fill:#000000" />
  </g>
</svg>
